<svg xmlns="http://www.w3.org/2000/svg" viewBox="0 0 64 64" aria-labelledby="title"
aria-describedby="desc" role="img" xmlns:xlink="http://www.w3.org/1999/xlink">
  <title>Wind</title>
  <desc>A solid styled icon from Orion Icon Library.</desc>
  <path data-name="layer2"
  d="M19.394 29.625a23.949 23.949 0 0 1-16.531-6.969 3 3 0 0 1 4.274-4.21c1.059 1.074 10.701 10.24 23.114 1.333 16.23-11.646 29.424.797 30.875 2.255a3 3 0 1 1-4.252 4.233c-1.765-1.773-11.178-10.184-23.125-1.613a24.36 24.36 0 0 1-14.355 4.97z"
  fill="#ffffff"></path>
  <path data-name="layer2" d="M19.87 41.318a23.237 23.237 0 0 1-8.801-1.789 3 3 0 0 1 2.263-5.557c5.813 2.368 11.506 1.599 16.92-2.284 13.277-9.527 25.654-3.197 30.874 2.046a3 3 0 1 1-4.252 4.233c-1.07-1.074-10.808-10.242-23.125-1.404a23.622 23.622 0 0 1-13.879 4.755z"
  fill="#ffffff"></path>
  <path data-name="layer1" d="M19.65 54.087a24.382 24.382 0 0 1-16.787-7.131 3 3 0 0 1 4.274-4.21c1.075 1.09 10.854 10.4 23.114 1.605 9.106-6.534 17.357-5.336 22.676-3.18a3 3 0 0 1-2.254 5.56c-5.702-2.31-11.396-1.471-16.924 2.495a23.911 23.911 0 0 1-14.1 4.86z"
  fill="#ffffff"></path>
</svg>