<svg xmlns="http://www.w3.org/2000/svg" viewBox="0 0 64 64" aria-labelledby="title"
aria-describedby="desc" role="img" xmlns:xlink="http://www.w3.org/1999/xlink">
  <title>Windsock</title>
  <desc>A solid styled icon from Orion Icon Library.</desc>
  <path data-name="layer2"
  d="M29 3.9v27.3c5.4-.5 10-1.2 14-1.9V12l-7.4-4.8A31.3 31.3 0 0 0 29 3.9z"
  fill="#ffffff"></path>
  <path data-name="layer1" d="M13 2a2 2 0 0 0-4 0v58H3a2 2 0 0 0 0 4h16a2 2 0 0 0 0-4h-6V32c4.3 0 8.3-.2 12-.4V2.8A49.1 49.1 0 0 0 13 2zm46 16c-4.2 0-7.9-1.4-12-3.7v14.3L59 26c3.7-.6 4-2.9 4-4a3.8 3.8 0 0 0-4-4z"
  fill="#ffffff"></path>
</svg>